{
  "asset": {
    "version": "2.0",
    "generator": "THREE.GLTFExporter r183"
  },
  "scenes": [
    {
      "nodes": [
        0
      ]
    }
  ],
  "scene": 0,
  "nodes": [
    {
      "matrix": [
        0.8090169943749475,
        0.29389262614623646,
        -0.5090369604551271,
        0,
        0,
        0.8660254037844387,
        0.4999999999999999,
        0,
        0.587785252292473,
        -0.4045084971874736,
        0.7006292692220368,
        0,
        0,
        0,
        0,
        1
      ],
      "mesh": 0
    }
  ],
  "bufferViews": [
    {
      "buffer": 0,
      "byteOffset": 0,
      "byteLength": 94956,
      "target": 34962,
      "byteStride": 12
    },
    {
      "buffer": 0,
      "byteOffset": 94956,
      "byteLength": 94956,
      "target": 34962,
      "byteStride": 12
    },
    {
      "buffer": 0,
      "byteOffset": 189912,
      "byteLength": 63304,
      "target": 34962,
      "byteStride": 8
    },
    {
      "buffer": 0,
      "byteOffset": 253216,
      "byteLength": 92160,
      "target": 34963
    }
  ],
  "buffers": [
    {
      "byteLength": 345376,
      "uri": "data:application/octet-stream;base64,"
    }
  ],
  "accessors": [
    {
      "bufferView": 0,
      "componentType": 5126,
      "count": 7913,
      "max": [
        1.449992299079895,
        1.3798155784606934,
        0.6493872404098511
      ],
      "min": [
        -1.1947367191314697,
        -1.379652976989746,
        -0.6493920087814331
      ],
      "type": "VEC3"
    },
    {
      "bufferView": 1,
      "componentType": 5126,
      "count": 7913,
      "max": [
        0.9999939799308777,
        0.9970228672027588,
        0.9975679516792297
      ],
      "min": [
        -0.9999939799308777,
        -0.9970228672027588,
        -0.9975679516792297
      ],
      "type": "VEC3"
    },
    {
      "bufferView": 2,
      "componentType": 5126,
      "count": 7913,
      "max": [
        1,
        1
      ],
      "min": [
        0,
        0
      ],
      "type": "VEC2"
    },
    {
      "bufferView": 3,
      "componentType": 5123,
      "count": 46080,
      "max": [
        7912
      ],
      "min": [
        0
      ],
      "type": "SCALAR"
    }
  ],
  "materials": [
    {
      "pbrMetallicRoughness": {
        "baseColorFactor": [
          0.038204371589236,
          0.05286064701616471,
          0.08228270712149792,
          1
        ],
        "metallicFactor": 0.9,
        "roughnessFactor": 0.15
      }
    }
  ],
  "meshes": [
    {
      "primitives": [
        {
          "mode": 4,
          "attributes": {
            "POSITION": 0,
            "NORMAL": 1,
            "TEXCOORD_0": 2
          },
          "indices": 3,
          "material": 0
        }
      ]
    }
  ]
}